Patient4_TMGait_0pt2_03_left_18_EMG.mot
version=1
nRows=16
nColumns=33
inDegrees=no
endheader
time	1LAddLong	2LGlutMax	3LGlutMed	4LIliopsoas	5LSemiMemb	6LBicFemLong	7LRecFem	8LVastMed	9LVastLat	10LGasMed	11LTibAnt	12lTibPost	13LPeroneusLong	14LSol	15LExtDigLong	16LFlexDigLong	17RAddLong	18RGlutMax	19RGlutMed	20RIliopsoas	21RSemiMemb	22RBicFemLong	23RRecFem	24RVastMed	25RVastLat	26RGasMed	27RTibAnt	28RTibPost	29RPeroneusLong	30RSol	31RExtDigLong	32RFlexDigLong
39.783	-0.007629	-0.06485	-0.021973	0.019073	0.010071	-0.028229	0.006104	0.000153	-0.006561	0.006409	0.024414	0.010681	-0.077515	0.005493	0.043793	0.009918	0.023041	0.24674	-0.011902	-0.032196	0.09964	0.011749	-0.41367	0.63187	0.13092	-0.020752	0.000916	-0.30777	0.02121	0.33722	0.000763	-0.001831
39.784	-0.006409	-0.1033	-0.021515	0.018921	0.007172	-0.005951	-0.002899	0.005035	-0.013123	0.003357	0.07782	0.010986	-0.098877	0.058289	0.18082	-0.008087	-0.050659	0.2655	-0.15457	-0.014496	0.36011	0.11612	-0.36484	0.3154	0.24826	-0.017395	0.019684	0.21362	0.023193	0.054169	0.003204	-0.002899
39.785	-0.007172	-0.10178	-0.0177	-0.00061	0.007172	-0.031738	-0.008392	0.000916	-0.005341	0.023041	0.045929	0.010223	-0.11673	0.030212	0.028381	-0.009155	-0.016785	0.21316	-0.28549	0.059967	0.018463	0.082397	-0.19684	-0.18875	0.02655	0.001068	0.007782	0.10513	-0.015411	-0.075073	0.000763	0.00351
39.786	-0.006256	-0.10605	-0.008087	-0.027618	0.007324	-0.024109	-0.007782	0.001678	-0.010529	-0.001526	-0.048065	0.013275	-0.054474	0.005188	-0.090179	-0.003662	-0.026093	0.16739	-0.26596	0.064545	-0.086517	-0.031891	0.11276	-0.63461	-0.29358	0.009766	0.019226	0.038605	-0.024719	-0.001373	0.002747	0.000458
39.787	-0.00824	-0.10223	-0.019226	-0.002136	0.001526	-0.032959	0.003204	0.005951	-0.007629	-0.018005	-0.036011	0.013275	-0.042725	-0.023804	-0.12039	0.001678	-0.061646	0.16678	-0.071411	0.093689	0.024719	-0.089874	0.070496	-0.41596	-0.20889	0.011597	0.037079	0.009766	-0.065155	0.017242	0.002441	0.001068
39.788	-0.004578	-0.12268	-0.019531	0.007324	0.012512	-0.016937	0.00412	0.006714	-0.008087	-0.01358	-0.066071	0.012207	-0.063782	-0.029449	-0.091095	0.006409	-0.028687	0.19012	0.79727	0.094299	-0.037537	-0.10223	0.084686	-0.34027	-0.071106	0.008392	0.054779	0.002594	-0.10803	-0.02121	0.000153	-0.009308
39.789	-0.001984	-0.12375	-0.027771	-0.001068	0.021667	-0.014954	-0.001984	0.002747	-0.014648	-0.006409	0.015106	0.004578	-0.054321	-0.02182	0.01236	-0.007782	0.030518	0.20325	1.1406	0.016327	-0.1622	-0.14252	0.11414	-0.32135	-0.031433	0.020752	0.021515	-0.002899	-0.16312	0.018311	-0.001526	0.002136
39.79	0.000763	-0.11993	-0.045624	-0.014496	0.000763	-0.012512	0.000916	0.003204	-0.00824	-0.008087	0.078735	0.00885	-0.084839	-0.050507	0.070801	-0.004425	0.099335	0.26428	0.7579	0.064087	-0.10315	-0.1651	0.20676	-0.32959	0.15167	0.029449	-0.016022	-0.018005	-0.13809	0.10376	-0.005188	0.001831
39.791	0.008392	-0.10025	0.020447	-0.015411	-0.000916	-0.019989	0.016632	0.003204	-0.008087	-0.00061	0.054016	0.009003	-0.056763	-0.065002	0.063324	0.008545	0.09552	0.3865	0.010834	0.13947	-0.11063	-0.067139	0.29373	-0.2742	0.38605	0.010071	-0.013733	-0.020447	-0.057678	0.012817	-0.001221	0.010529
39.792	0.004425	-0.086975	0.037079	-0.019073	-0.001678	-0.00946	0.00946	0.004425	-0.007019	-0.013885	-0.000763	0.001068	-0.018768	-0.052338	0.06134	-0.005493	0.049286	0.29816	-0.51498	0.1442	-0.14343	0.079498	0.30319	-0.020905	0.36331	0.001373	0.007935	-0.02121	0.099335	-0.051575	0.00061	0.005341
39.793	0.003967	-0.081329	0.014648	-0.015564	0.019073	-0.023346	0.012512	-0.00351	0.008087	-0.005341	-0.03067	0.003357	-0.038147	-0.032654	0.076599	-0.003967	0.037689	0.13245	-0.50781	0.084839	-0.046387	0.21683	0.30685	0.070801	0.15869	-0.001068	0.030823	-0.010681	-0.12833	-0.14984	-0.001373	0.000763
39.794	0.002747	-0.06134	0.011292	0.003357	0.016022	-0.009613	0.018768	0.007019	0.010529	0.011902	0.003662	-0.002136	-0.054169	-0.040131	0.12451	-0.002747	0.003815	0.020599	-0.63568	0.051727	0.00351	0.20905	0.28671	0.094299	-0.10483	-0.021667	0.040283	-0.020142	-0.18906	-0.13763	-0.001068	0.001984
39.795	0.003967	-0.069122	-0.010376	0.030823	0.010681	-0.014954	0.0354	0.00473	-0.002594	0.008392	0.007172	0.001221	-0.080719	-0.011902	0.063171	-0.003052	0.014954	-0.16953	-0.86548	0.06073	-0.099182	0.068207	0.36743	0.053711	-0.34836	-0.010681	0.04837	0.001678	-0.13596	-0.16235	0.000305	-0.002441
39.796	0.005341	-0.062408	-0.019073	0.049591	0.007477	-0.035095	0.042114	0.005646	0.006409	-0.013733	0.033875	0.002136	-0.07843	0.015717	0.031586	0.002594	0.006256	-0.31128	-0.68634	0.029755	-0.13214	0.026245	0.28946	-0.029449	-0.43472	0.014191	0.016632	0.031891	0.086975	-0.028992	0.000916	-0.004883
39.797	0.004578	-0.06134	-0.03952	0.084229	0.00473	-0.027618	0.015869	0.009613	-0.010834	-0.009155	0.045624	0.011597	-0.076904	0.049133	0.06134	-0.011902	-0.015717	-0.25559	-0.25955	-0.067291	-0.16693	0.032501	0.11154	-0.064392	-0.38513	0.031738	0.014191	0.081177	-0.047455	0.11139	-0.00061	-0.015411
39.798	0.001526	-0.043182	-0.03418	0.052795	0.005188	-0.0177	0.014648	0.006561	0.007477	-0.012817	0.067749	0.003204	-0.068665	0.073395	0.19684	-0.005951	-0.007477	-0.2652	-0.24536	-0.12573	-0.008087	0.069885	0.39642	-0.10223	-0.34012	0.019684	0.00351	-0.5275	-0.19058	0.14389	0.000153	-0.019226
